#!OML:ASF F:\VICON\USERDATA\INSTALL\rory3\rory3.ASF
:FULLY-SPECIFIED
:DEGREES
34
root 1.0925125682375463 18.074933884891635 -4.329783829493476 -4.107799081414463 -4.407563112790962 0.14601544245361175
lfemur -10.860200927453892 -2.397980066771685 -24.387797468825674
ltibia 26.072427839263216
lfoot -10.194171482227441 -1.4268363056688211
ltoes 1.1586195266969432
rfemur -15.214090712669453 0.6625722517023171 20.94181739716208
rtibia 75.23637819981036
rfoot 2.6606605176223272 -7.937914220483459
rtoes 11.231502013336357
lowerback 10.529175429141862 1.9810749043572304 0.04281525039270373
upperback 0.6433151348529084 2.5397782192105907 0.03848634241271931
thorax -5.86553038003782 1.218134532250422 -0.11176593172211424
lowerneck -15.37318445613932 -2.7942954268288505 -1.3350627975520841
upperneck 23.151745811503382 -3.5696046595929607 -0.020858644917480268
head 10.182253367203698 -1.7972216950176458 -0.3745352945883074
lclavicle -1.3723870858255314e-15 -1.8310661299724556e-15
lhumerus -32.174591039328895 7.720730053869331 81.6383742614828
lradius 17.124697867454195
lwrist -0.3602819332862559
lhand -27.257353474835547 23.27558727626302
lfingers 7.125019999999999
lthumb -0.34306844545393567 53.43046071348672
rclavicle -1.3845255918507855e-15 -1.8409994987485213e-15
rhumerus -28.558075545016436 -24.762564186305287 -76.15473988955344
rradius 24.401663517513743
rwrist 6.182069717443271
rhand -17.576091223379613 22.161774554111975
rfingers 7.125019999999999
rthumb 8.36809797582 -8.36676560628604
35
root 1.0846874702195706 18.070854395145023 -3.3055291012558374 -4.442512755788502 -3.67068871204288 0.5709215313052223
lfemur -8.075839241668032 -1.8292260814011179 -25.19739739135118
ltibia 25.647049118690923
lfoot -11.914171599757907 -1.3217900672037304
ltoes -0.23775109663096572
rfemur -19.83358446766338 -0.6849212816819827 20.79179248884964
rtibia 76.59512926738691
rfoot -1.4543177799117766 -7.331085708938233
rtoes 9.304200616459953
lowerback 10.645357134945222 1.3563787044388267 -0.4846581341530516
upperback 0.7620222159460436 1.7358228615231153 0.1174329831553258
thorax -5.937013338855246 0.8216719269954575 0.32162466604927764
lowerneck -15.219434165184865 -2.6513134915859813 -1.4422412735635282
upperneck 23.295806116875358 -3.2693209651772266 -0.08977689669294595
head 10.220981333128098 -1.6922315724152723 -0.3400724304024091
lclavicle -1.3771072269938537e-15 -1.8348202001312515e-15
lhumerus -30.469021921054363 5.850607807740656 81.73328728177957
lradius 18.317205880508805
lwrist 1.7722431427034318
lhand -27.94620223713888 22.679170560696573
lfingers 7.125019999999999
lthumb -0.985360139404696 53.158347683237814
rclavicle -1.3833108745953467e-15 -1.8398703491077384e-15
rhumerus -29.61500889846121 -25.73753215355086 -75.54318392203609
rradius 23.511811797992152
rwrist 6.846086634904365
rhand -17.43059054386278 21.858983512941705
rfingers 7.125019999999999
rthumb 8.634924244598118 -8.39466344497145
36
root 1.0759827929668122 18.073670480012368 -2.226449315231392 -4.65217916217246 -2.305570576907196 0.6766449606270597
lfemur -6.074513487089982 -1.7781373961324767 -25.632552621846937
ltibia 25.969070836283947
lfoot -13.66945888454781 -0.7599043910754406
ltoes -1.5418121746355078
rfemur -23.84855808242982 -2.1096120896200325 21.095694480349856
rtibia 74.93420627861695
rfoot -5.807747915186147 -5.719965237337849
rtoes 7.2157917329044565
lowerback 10.841478053820165 0.5706043857442511 -1.0972067827087215
upperback 0.7304193768137047 0.682356907804213 0.2510651240034423
thorax -6.065916645583794 0.33491408926899896 0.9126703364111577
lowerneck -15.15783103855069 -2.5645586532892044 -1.550216062226355
upperneck 23.467564194566627 -3.0794337133505505 -0.20582357372381013
head 10.275144181348937 -1.6261632063242808 -0.3282126120879414
lclavicle -1.3738002309678624e-15 -1.8323491894281236e-15
lhumerus -28.760476335725016 3.787774713156817 81.70935711785059
lradius 19.79729489538058
lwrist 4.114685668098722
lhand -28.208847326896112 22.73058759757296
lfingers 7.125019999999999
lthumb -1.313027467574396 53.390523240385704
rclavicle -1.383340203720721e-15 -1.839897831443389e-15
rhumerus -30.673291359590976 -26.047575745085545 -75.25530147928532
rradius 23.236699492330494
rwrist 6.350790700408156
rhand -17.24540874897921 22.13055052764839
rfingers 7.125019999999999
rthumb 8.823903630270433 -8.150237172624111
37
root 1.0596819451927035 18.014794455610883 -1.4111758279992976 -4.724222410087629 -1.3482805567597251 1.2226650805221286
lfemur -4.3084756402990125 -1.9460371436140795 -26.410027997321
ltibia 26.371064588140165
lfoot -14.061553023678535 0.1100371056061542
ltoes -2.5157654592663694
rfemur -27.121984074924768 -2.7777131785907194 21.13382431510241
rtibia 70.5494810779118
rfoot -9.336192513021144 -5.242876887482891
rtoes 5.564890999685678
lowerback 11.159989213102802 -0.07469343236572479 -2.064251955690147
upperback 0.7078444733318974 -0.2700789126096129 0.36660179612495636
thorax -5.968155065690128 -0.08801166661267085 1.6075860941586027
lowerneck -15.146534623462284 -2.5846004983673203 -1.768020315671665
upperneck 23.523949393694682 -3.0609208930145235 -0.17369168679393857
head 10.271659036864047 -1.621139285565133 -0.2769948926634141
lclavicle -1.376675584969173e-15 -1.8349134713037234e-15
lhumerus -27.200563711446524 1.8582088334137563 81.47352797918609
lradius 21.520590281503125
lwrist 4.781433155105891
lhand -27.85422533755694 23.37855610063019
lfingers 7.125019999999999
lthumb -0.9539970564812305 53.93519980902534
rclavicle -1.384489147022995e-15 -1.8409648304144456e-15
rhumerus -31.665475646493498 -25.903538203320437 -75.12103869284792
rradius 23.330944131940836
rwrist 5.502966216637868
rhand -17.285658178276332 22.61041434607594
rfingers 7.125019999999999
rthumb 8.865658016707458 -7.434796200078497
